<?xml version="1.0" encoding="UTF-8" standalone="no"?>
<!-- Created with Inkscape (http://www.inkscape.org/) -->

<svg
   xmlns:dc="http://purl.org/dc/elements/1.1/"
   xmlns:cc="http://creativecommons.org/ns#"
   xmlns:rdf="http://www.w3.org/1999/02/22-rdf-syntax-ns#"
   xmlns:svg="http://www.w3.org/2000/svg"
   xmlns="http://www.w3.org/2000/svg"
   xmlns:sodipodi="http://sodipodi.sourceforge.net/DTD/sodipodi-0.dtd"
   xmlns:inkscape="http://www.inkscape.org/namespaces/inkscape"
   width="2000"
   height="2000"
   viewBox="0 0 529.16666 529.16666"
   version="1.1"
   id="svg8288"
   inkscape:version="0.92.5 (2060ec1f9f, 2020-04-08)"
   sodipodi:docname="f1_aut_wall-polygon.svg">
  <defs
     id="defs8282" />
  <sodipodi:namedview
     id="base"
     pagecolor="#ffffff"
     bordercolor="#666666"
     borderopacity="1.0"
     inkscape:pageopacity="0.0"
     inkscape:pageshadow="2"
     inkscape:zoom="0.35"
     inkscape:cx="-1022.8571"
     inkscape:cy="560"
     inkscape:document-units="mm"
     inkscape:current-layer="layer1"
     showgrid="false"
     units="px"
     inkscape:window-width="2880"
     inkscape:window-height="1685"
     inkscape:window-x="0"
     inkscape:window-y="0"
     inkscape:window-maximized="1" />
  <metadata
     id="metadata8285">
    <rdf:RDF>
      <cc:Work
         rdf:about="">
        <dc:format>image/svg+xml</dc:format>
        <dc:type
           rdf:resource="http://purl.org/dc/dcmitype/StillImage" />
        <dc:title />
      </cc:Work>
    </rdf:RDF>
  </metadata>
  <g
     inkscape:label="Layer 1"
     inkscape:groupmode="layer"
     id="layer1"
     transform="translate(0,232.16664)">
    <path
       style="clip-rule:evenodd;display:inline;fill:#e6e6e6;fill-opacity:1;stroke:none;stroke-width:0.95054722;stroke-miterlimit:10;stroke-dasharray:none;stroke-opacity:1"
       d="M -1.6666667e-6,-232.16664 V 297.00003 H 529.16667 V -232.16664 Z M 367.85867,-61.849902 c 1.57092,-0.0114 4.0657,0.78868 5.48857,2.63653 1.42285,1.84782 1.66214,3.85083 1.60454,5.71696 l -0.0151,0.50023 -4.3739,19.61224 -5.88905,12.77596 -8.1747,18.0759003 -6.05078,16.8485897 -6.03528,18.1467 -0.15092,0.3116 c 0,0 -0.90728,2.20744 -3.36671,3.8654 -1.22973,0.82897 -3.06713,1.55181 -5.1077,1.46709 -2.04058,-0.0847 -4.02963,-0.9471 -5.68905,-2.2288 l -0.10853,-0.0837 -0.10385,-0.0894 c 0,0 -11.47569,-9.78078 -9.63094,-24.97935 0.008,-0.27234 0.0225,-0.55518 0.0548,-0.8200997 0.0983,-0.80502 0.29422,-1.83679 0.67075,-3.21428 0.75311,-2.75498 2.22771,-6.90050997 5.20745,-13.27929 l 0.14417,-0.30903 0.18293,-0.28784 c 0,0 1.13842,-1.80398 2.1668,-4.1098203 1.02839,-2.30585 1.4414,-5.1875 1.43452,-5.22139 l -0.0341,-0.16692 -0.0233,-0.16898 c -2e-5,0 0.094,-2.7573 -3.34917,-3.47937 -0.10575,-0.0156 -0.62905,-0.0743 -1.75853,0.15916 l -17.45115,4.45554 c -0.27694,0.19262 -0.6859,0.51232 -1.14773,1.12655 -0.63662,0.84675 -1.12872,1.53379 -0.5152,3.62045 l 6.63422,10.50995033 0.17777,0.43719 c 0,0 2.60204,6.10302997 1.28725,13.42655967 l -0.0325,0.17933 -10.75958,42.77931 -2.5709,10.296522 -0.0151,0.0558 c 0,0 -2.18641,7.34028 -9.46248,8.4677 l -0.3638,0.0563 -19.29598,0.28525 0.0315,-0.003 c -0.72474,0.0233 -2.26266,-0.0217 -3.88038,-0.67178 -2.2248,-0.89402 -4.87613,-3.5179 -5.59913,-6.92155 l -0.005,-0.0206 -2.32701,-11.402402 -0.10488,-0.51419 -0.003,-0.52504 c -0.0534,-14.60397 -0.10713,-29.20742 -0.16124,-43.80869 v -0.013 -0.0124 c 0.01,-9.7154697 0.0204,-19.4307397 0.03,-29.14344 v -0.0832 l 0.004,-0.0832 c 0.0175,-0.53525 -0.79679,-3.42008 1.88619,-6.58822 l 1.07537,-1.27021 1.6087,-0.42581 c 0,-1e-5 2.66258,-0.70348 4.44105,-1.16169 0.0655,-0.0199 3.71264,-1.12813 11.24895,-4.57646 l 0.13229,-0.0605 10.22519,-4.01577 44.29758,-9.94151 28.97444,-14.8022 c 0.21061,-0.17857 1.64486,-1.3095 4.54752,-1.33067 z m -4.763,13.32528 -25.13594,12.84108 -44.80915,10.05623 -9.25526,3.63492 c -7.89754,3.6018 -12.41575,5.00745 -12.41575,5.00745 l -0.11576,0.0351 -0.11681,0.03 c -0.46273,0.11877 -0.69075,0.18098 -1.24643,0.32608 -0.009,9.4112003 -0.019,18.8242003 -0.0289,28.23754 0.0534,14.41863 0.10638,28.83939 0.15917,43.26042 l 2.04639,10.025222 17.44544,-0.25786 c 0.67008,-0.18333 0.71831,-0.67683 0.71831,-0.71829 l 2.53731,-10.163232 10.65257,-42.35295 c 0.57388,-3.3613197 -0.33814,-6.4144397 -0.58806,-7.1644197 l -6.80167,-10.77454 -0.2005,-0.58394 c -1.93244,-5.6262603 -0.28356,-10.8892303 1.95286,-13.8637603 2.23642,-2.9745 5.08701,-4.39973 5.08701,-4.39973 l 0.52866,-0.2713 19.10893,-4.87826 0.108,-0.0227 c 3.08028,-0.65119 5.70661,-0.26148 5.70661,-0.26148 l 0.0941,0.0145 0.093,0.0181 c 9.85383,1.9027 11.85614,12.13428 11.90162,12.37237 0.87194,4.6994 -0.81994,8.35851 -2.17403,11.3946603 -1.19771,2.68552 -2.33015,4.53778 -2.65255,5.05705 -2.73381,5.87344 -3.97915,9.48241 -4.50567,11.40861 -0.25707,0.9403797 -0.33504,1.4442797 -0.36123,1.6474497 l 0.0185,0.18759 -0.0755,0.59219 c -0.86051,6.7863 2.55159,11.87183 4.58422,14.25237 l 5.08961,-15.30448 6.2363,-17.3648397 8.36486,-18.4965503 5.43277,-11.78481 z"
       id="rect1662-3"
       inkscape:connector-curvature="0" />
  </g>
</svg>
