<?xml version="1.0" encoding="UTF-8" standalone="no"?>
<!-- Created with Inkscape (http://www.inkscape.org/) -->

<svg
   xmlns:dc="http://purl.org/dc/elements/1.1/"
   xmlns:cc="http://creativecommons.org/ns#"
   xmlns:rdf="http://www.w3.org/1999/02/22-rdf-syntax-ns#"
   xmlns:svg="http://www.w3.org/2000/svg"
   xmlns="http://www.w3.org/2000/svg"
   xmlns:sodipodi="http://sodipodi.sourceforge.net/DTD/sodipodi-0.dtd"
   xmlns:inkscape="http://www.inkscape.org/namespaces/inkscape"
   width="2000"
   height="2000"
   viewBox="0 0 529.16666 529.16666"
   version="1.1"
   id="svg8288"
   inkscape:version="0.92.5 (2060ec1f9f, 2020-04-08)"
   sodipodi:docname="f1_aut_wide_wall-polygon.svg">
  <defs
     id="defs8282" />
  <sodipodi:namedview
     id="base"
     pagecolor="#ffffff"
     bordercolor="#666666"
     borderopacity="1.0"
     inkscape:pageopacity="0.0"
     inkscape:pageshadow="2"
     inkscape:zoom="0.49497475"
     inkscape:cx="132.81699"
     inkscape:cy="803.59215"
     inkscape:document-units="mm"
     inkscape:current-layer="layer1"
     showgrid="false"
     units="px"
     inkscape:window-width="2880"
     inkscape:window-height="1685"
     inkscape:window-x="0"
     inkscape:window-y="0"
     inkscape:window-maximized="1" />
  <metadata
     id="metadata8285">
    <rdf:RDF>
      <cc:Work
         rdf:about="">
        <dc:format>image/svg+xml</dc:format>
        <dc:type
           rdf:resource="http://purl.org/dc/dcmitype/StillImage" />
        <dc:title />
      </cc:Work>
    </rdf:RDF>
  </metadata>
  <g
     inkscape:label="Layer 1"
     inkscape:groupmode="layer"
     id="layer1"
     transform="translate(0,232.16664)">
    <path
       style="clip-rule:evenodd;display:inline;fill:#e6e6e6;fill-opacity:1;stroke:none;stroke-width:0.95054722;stroke-miterlimit:10;stroke-dasharray:none;stroke-opacity:1"
       d="M -2.6666667e-6,-232.16664 V 297.00003 H 529.16667 V -232.16664 Z M 370.48488,-71.374908 v 0 c 2.12444,-0.01548 5.63761,1.113382 7.6047,3.667993 1.9671,2.55461 2.22073,5.196234 2.15231,7.412984 l -0.0164,0.545703 -4.41008,25.96999 -6.08954,13.210563 -8.12716,17.9709983 -6.00427,16.7193947 -6.07972,18.28157 -0.22688,0.46664 c 0,0 -1.09689,2.76659 -4.26847,4.90461 -1.58581,1.06902 -4.01895,2.02832 -6.69571,1.91719 -2.67674,-0.11112 -5.21467,-1.24748 -7.19698,-2.77865 l -0.16277,-0.12557 -0.15608,-0.13383 c 0,0 -12.6364,-10.73882 -10.51513,-27.4680997 l -0.003,0.15245 c 0.0111,-0.28141 0.008,-0.5651 0.0382,-0.81184 0.11718,-0.95993 0.34105,-2.113136 0.74517,-3.591508 0.80823,-2.956748 2.33757,-7.226049 5.36247,-13.701491 l 0.21654,-0.463536 0.2744,-0.432017 c 0,0 1.04272,-1.6602213 1.98334,-3.7692783 0.94062,-2.109058 1.02055,-4.777238 1.25883,-3.612701 l -0.0512,-0.251147 -0.0351,-0.253215 c 0,0 0.50805,-0.807587 -1.14361,-1.208711 -0.0206,-0.005 -0.19812,0.0029 -0.72345,0.10387 l -19.42674,5.312854 c -0.10049,0.09084 -0.14685,0.106461 -0.32245,0.340032 -0.22233,0.295688 -0.32425,0.362413 -0.17984,0.955495 l 6.54741,10.3719793 0.26612,0.655257 c 0,0 2.90867,6.704208 1.4392,14.8890167 l -0.048,0.26871 -10.78127,42.86508 -2.57709,10.32237 -0.0228,0.0837 c 0,0 -2.73383,9.01007 -11.61013,10.38543 l -0.5457,0.0847 -19.47995,0.28784 0.10904,-0.007 c -0.94927,0.0304 -2.9201,-0.0288 -4.98316,-0.85784 -2.86288,-1.1504 -6.31615,-4.66013 -7.20112,-8.82634 l -0.006,-0.031 -2.32957,-11.41272 -0.15761,-0.77153 -0.003,-0.78705 c -0.0534,-14.60394 -0.10715,-29.20806 -0.16123,-43.8092 v -0.0186 -0.0186 c 0.01,-9.7123477 0.0205,-25.24871 0.03,-34.964276 v -0.125056 l 0.004,-0.124542 c 0.0767,-2.364348 1.48356,-5.092567 2.4505,-6.206855 0.96695,-1.114287 1.15926,-1.218075 0.97978,-1.006141 l 0.33848,-0.399974 0.38861,-0.351917 c 0,0 1.79717,-2.664375 7.02336,-4.005958 l -0.34935,0.09819 c 0,0 3.47498,-1.039217 10.97298,-4.470014 l 0.19791,-0.09095 10.44744,-4.102592 46.81678,-10.967807 28.53571,-14.577404 c 0.25831,-0.23472 1.98937,-1.681435 5.90611,-1.709973 z m -7.87601,20.542414 -21.06433,10.761101 -47.58161,11.146605 -9.05785,3.557408 c -7.48504,3.408259 -11.75374,4.790974 -12.26021,4.95215 -0.009,9.706303 -0.0183,23.1117493 -0.0274,32.024398 3e-5,0.002 0,0.005 0,0.007 v 0.03 c 0.0531,14.32656 0.10517,28.6556 0.15761,42.98448 l 1.55546,7.62021 13.75886,-0.20365 2.22261,-8.90021 10.60968,-42.18502 c 0.44868,-2.6853497 -0.27606,-5.1149307 -0.44029,-5.6317017 l -6.74272,-10.681001 -0.30078,-0.875914 c -2.20091,-6.4079623 -0.28371,-12.8230183 2.34043,-16.3132163 2.62416,-3.490201 5.99551,-5.164545 5.99551,-5.164545 l 0.73226,-0.375169 22.09064,-6.041493 0.22736,-0.04806 c 3.52811,-0.745879 6.66213,-0.286803 6.66213,-0.286803 l 0.14107,0.0217 0.14005,0.02739 c 11.43788,2.208567 13.95733,14.308709 14.01516,14.592909 1.05204,5.786839 -0.94115,9.637773 -2.37349,12.8493443 -1.19415,2.677538 -2.27278,4.475493 -2.71198,5.190381 -2.65489,5.715172 -3.84064,9.179092 -4.3098,10.895459 -0.19302,0.70612 -0.21934,0.9264697 -0.24289,1.0748697 l 0.01,0.0992 -0.11266,0.88832 c -0.38626,3.04629 0.25265,5.7043 1.19372,7.83776 l 3.35484,-10.0872397 6.28232,-17.494018 8.4124,-18.6014493 5.23224,-11.350728 z"
       id="rect1662-36"
       inkscape:connector-curvature="0" />
  </g>
</svg>
