<?xml version="1.0" encoding="UTF-8" standalone="no"?>
<svg xmlns="http://www.w3.org/2000/svg" xmlns:xlink="http://www.w3.org/1999/xlink" clip-rule="evenodd" stroke-miterlimit="10" viewBox="0 0 680.31 510.24">
    <desc>SVG generated by Lineform</desc>
    <defs/>
    <g>
        <path d="M 567.80 358.72 C 514.29 372.26 460.78 385.80 407.28 399.34 C 371.64 408.18 336.00 417.02 300.37 425.86 C 296.23 426.75 291.43 428.50 287.54 426.58 C 287.54 426.58 282.16 416.80 278.95 410.86 C 278.95 410.86 270.53 396.85 250.27 371.45 L 227.41 339.32 L 150.03 185.06 L 66.76 89.44 C 66.76 89.44 54.66 77.72 71.88 73.99 L 143.78 72.21 L 193.99 81.75 L 268.61 95.37 L 336.96 102.27 L 407.96 107.74 C 407.96 107.74 425.87 111.51 418.09 129.24 C 418.09 129.24 397.12 171.01 350.24 176.57 C 350.24 176.57 338.72 180.68 288.07 170.79 C 288.07 170.79 252.53 158.95 235.61 167.04 C 235.61 167.04 211.98 176.52 213.37 202.51 C 213.37 202.51 213.92 208.65 217.61 216.24 L 251.70 279.52 C 251.70 279.52 271.92 302.68 299.17 285.02 L 332.46 250.24 C 332.46 250.24 348.62 238.47 370.08 237.04 L 536.13 237.41 L 576.04 237.43 C 576.04 237.43 591.71 237.78 597.75 252.15 L 616.07 321.31 C 616.07 321.31 620.47 333.44 607.42 339.80 Z M 567.80 358.72 " stroke="#000000" stroke-width="7.34" fill="none"/>
        <path d="M 607.54 286.48 L 604.96 318.17 C 604.96 318.17 605.31 324.09 598.42 329.73 C 598.42 329.73 581.67 341.19 571.22 345.77 L 464.86 371.70 L 392.04 390.93 L 307.04 412.28 L 301.52 413.96 C 301.52 413.96 291.11 414.47 284.51 401.95 C 284.51 401.95 278.19 392.09 268.56 385.36 L 253.48 374.70 " stroke="#000000" stroke-width="4.04" fill="none"/>
        <text xml:space="preserve" font-family="Liberation Sans" font-size="18.00" fill="#999999" transform="matrix(0.887623, 0, 0, 0.887623, 0, 0)">
            <tspan x="241.02" y="536.41">Niki Lauda Kurve</tspan>
        </text>
        <text xml:space="preserve" font-family="Liberation Sans" font-size="18.00" fill="#999999" transform="matrix(0.887623, 0, 0, 0.887623, 0, 0)">
            <tspan x="485.13" y="148.40">Schlossgold</tspan>
        </text>
        <text xml:space="preserve" font-family="Liberation Sans" font-size="18.00" fill="#999999" transform="matrix(0.887623, 0, 0, 0.887623, 0, 0)">
            <tspan x="232.08" y="166.45">Rauch</tspan>
        </text>
        <text xml:space="preserve" font-family="Liberation Sans" font-size="18.00" fill="#999999" transform="matrix(0.887623, 0, 0, 0.887623, 0, 0)">
            <tspan x="330.50" y="363.71">Würth Kurve</tspan>
        </text>
        <text xml:space="preserve" font-family="Liberation Sans" font-size="18.00" fill="#999999" transform="matrix(0.887623, 0, 0, 0.887623, 0, 0)">
            <tspan x="634.13" y="237.88">Rindt</tspan>
        </text>
        <path d="M 292.88 427.55 C 292.82 429.09 291.51 430.30 289.96 430.24 C 288.40 430.18 287.19 428.87 287.25 427.33 C 287.31 425.78 288.62 424.58 290.17 424.64 C 291.73 424.70 292.95 426.00 292.88 427.55 " fill-rule="non-zero" fill="#FFFFFF"/>
        <path d="M 571.29 359.25 C 571.23 360.79 569.92 362.00 568.36 361.94 C 566.80 361.88 565.59 360.57 565.65 359.03 C 565.71 357.48 567.02 356.28 568.58 356.34 C 570.13 356.40 571.35 357.70 571.29 359.25 " stroke="#000000" stroke-width="0.55" stroke-linecap="square" stroke-linejoin="bevel" fill="none"/>
        <path d="M 65.52 80.20 C 65.46 81.75 64.15 82.96 62.60 82.89 C 61.04 82.83 59.83 81.53 59.89 79.98 C 59.95 78.44 61.26 77.23 62.81 77.29 C 64.37 77.36 65.58 78.66 65.52 80.20 " fill-rule="non-zero" fill="#FFFFFF"/>
        <path d="M 65.52 80.20 C 65.46 81.75 64.15 82.96 62.60 82.89 C 61.04 82.83 59.83 81.53 59.89 79.98 C 59.95 78.44 61.26 77.23 62.81 77.29 C 64.37 77.36 65.58 78.66 65.52 80.20 " stroke="#000000" stroke-width="0.55" stroke-linecap="square" stroke-linejoin="bevel" fill="none"/>
        <path d="M 419.66 113.09 C 419.59 114.64 418.28 115.84 416.73 115.78 C 415.17 115.73 413.96 114.42 414.02 112.87 C 414.08 111.33 415.39 110.12 416.95 110.18 C 418.51 110.24 419.72 111.55 419.66 113.09 " fill="#FFFFFF" stroke="#000000" stroke-width="0.55" stroke-linecap="square" stroke-linejoin="bevel"/>
        <text xml:space="preserve" font-family="Liberation Sans" font-size="18.00" fill="#999999" transform="matrix(0.887623, 0, 0, 0.887623, 0, 0)">
            <tspan x="669.63" y="423.00">Red Bull</tspan>
            <tspan x="684.64" y="444.00">Mobile</tspan>
        </text>
        <text xml:space="preserve" font-family="Liberation Sans" font-size="18.00" fill="#999999" transform="matrix(0.887623, 0, 0, 0.887623, 0, 0)">
            <tspan x="34.85" y="66.38">Remus</tspan>
        </text>
        <ellipse cx="274.72" cy="445.25" rx="10.15" ry="10.15" fill="#FFFFFF" stroke="#000000" stroke-width="0.59"/>
        <text xml:space="preserve" font-family="Liberation Sans" font-size="12.00" transform="matrix(0.948888, 0, 0, 0.948888, 0, 0)">
            <tspan x="286.02" y="472.92">1</tspan>
        </text>
        <path d="M 489.38 389.94 L 491.79 401.08 L 470.33 400.03 Z M 489.38 389.94 " fill-rule="non-zero" fill="#FF0000"/>
        <g>
            <path d="M 456.77 369.06 L 458.58 376.24 L 451.40 378.06 L 449.59 370.88 Z M 456.77 369.06 " fill-rule="non-zero" fill="#000000"/>
            <path d="M 449.59 370.88 L 451.40 378.06 L 444.22 379.87 L 442.41 372.69 Z M 449.59 370.88 " fill-rule="non-zero" fill="#FFFFFF"/>
            <path d="M 442.41 372.69 L 444.22 379.87 L 437.04 381.69 L 435.23 374.51 Z M 442.41 372.69 " fill-rule="non-zero" fill="#000000"/>
            <path d="M 458.57 376.18 L 460.38 383.36 L 453.20 385.18 L 451.39 378.00 Z M 458.57 376.18 " fill-rule="non-zero" fill="#FFFFFF"/>
            <path d="M 444.21 379.81 L 446.02 386.99 L 438.84 388.80 L 437.03 381.62 Z M 444.21 379.81 " fill-rule="non-zero" fill="#FFFFFF"/>
            <path d="M 451.37 377.93 L 453.19 385.11 L 446.01 386.93 L 444.19 379.75 Z M 451.37 377.93 " fill-rule="non-zero" fill="#000000"/>
            <path d="M 460.37 383.30 L 462.18 390.48 L 455.00 392.29 L 453.19 385.11 Z M 460.37 383.30 " fill-rule="non-zero" fill="#000000"/>
            <path d="M 453.19 385.11 L 455.00 392.29 L 447.82 394.11 L 446.01 386.93 Z M 453.19 385.11 " fill-rule="non-zero" fill="#FFFFFF"/>
            <path d="M 446.01 386.93 L 447.82 394.11 L 440.64 395.92 L 438.82 388.74 Z M 446.01 386.93 " fill-rule="non-zero" fill="#000000"/>
            <path d="M 462.16 390.42 L 463.98 397.60 L 456.80 399.41 L 454.98 392.23 Z M 462.16 390.42 " fill-rule="non-zero" fill="#FFFFFF"/>
            <path d="M 447.80 394.04 L 449.62 401.22 L 442.44 403.04 L 440.62 395.86 Z M 447.80 394.04 " fill-rule="non-zero" fill="#FFFFFF"/>
            <path d="M 454.97 392.17 L 456.78 399.35 L 449.60 401.16 L 447.79 393.98 Z M 454.97 392.17 " fill-rule="non-zero" fill="#000000"/>
            <path d="M 464.18 397.34 L 466.00 404.52 L 458.82 406.34 L 457.00 399.16 Z M 464.18 397.34 " fill-rule="non-zero" fill="#000000"/>
            <path d="M 457.00 399.16 L 458.82 406.34 L 451.64 408.15 L 449.82 400.97 Z M 457.00 399.16 " fill-rule="non-zero" fill="#FFFFFF"/>
            <path d="M 449.82 400.97 L 451.64 408.15 L 444.45 409.97 L 442.64 402.79 Z M 449.82 400.97 " fill-rule="non-zero" fill="#000000"/>
        </g>
        <path d="M 235.52 236.28 L 245.46 230.72 L 250.73 251.55 Z M 235.52 236.28 " fill-rule="non-zero" fill="#FF0000"/>
        <ellipse cx="43.22" cy="78.11" rx="10.15" ry="10.15" fill="#FFFFFF" stroke="#000000" stroke-width="0.59"/>
        <text xml:space="preserve" font-family="Liberation Sans" font-size="12.00" transform="matrix(0.948888, 0, 0, 0.948888, 0, 0)">
            <tspan x="42.05" y="85.99">2</tspan>
        </text>
        <ellipse cx="436.28" cy="101.95" rx="10.15" ry="10.15" fill="#FFFFFF" stroke="#000000" stroke-width="0.59"/>
        <text xml:space="preserve" font-family="Liberation Sans" font-size="12.00" transform="matrix(0.948888, 0, 0, 0.948888, 0, 0)">
            <tspan x="456.28" y="111.12">3</tspan>
        </text>
        <ellipse cx="277.49" cy="309.82" rx="10.15" ry="10.15" fill="#FFFFFF" stroke="#000000" stroke-width="0.59"/>
        <text xml:space="preserve" font-family="Liberation Sans" font-size="12.00" transform="matrix(0.948888, 0, 0, 0.948888, 0, 0)">
            <tspan x="288.93" y="330.19">5</tspan>
        </text>
        <ellipse cx="360.81" cy="255.91" rx="10.15" ry="10.15" fill="#FFFFFF" stroke="#000000" stroke-width="0.59"/>
        <text xml:space="preserve" font-family="Liberation Sans" font-size="12.00" transform="matrix(0.948888, 0, 0, 0.948888, 0, 0)">
            <tspan x="376.75" y="273.37">6</tspan>
        </text>
        <ellipse cx="606.58" cy="227.31" rx="10.15" ry="10.15" fill="#FFFFFF" stroke="#000000" stroke-width="0.59"/>
        <text xml:space="preserve" font-family="Liberation Sans" font-size="12.00" transform="matrix(0.948888, 0, 0, 0.948888, 0, 0)">
            <tspan x="635.76" y="243.24">7</tspan>
        </text>
        <ellipse cx="634.87" cy="342.52" rx="10.15" ry="10.15" fill="#FFFFFF" stroke="#000000" stroke-width="0.59"/>
        <text xml:space="preserve" font-family="Liberation Sans" font-size="12.00" transform="matrix(0.948888, 0, 0, 0.948888, 0, 0)">
            <tspan x="665.57" y="364.64">8</tspan>
        </text>
        <ellipse cx="208.19" cy="165.70" rx="10.15" ry="10.15" fill="#FFFFFF" stroke="#000000" stroke-width="0.59"/>
        <text xml:space="preserve" font-family="Liberation Sans" font-size="12.00" transform="matrix(0.948888, 0, 0, 0.948888, 0, 0)">
            <tspan x="215.91" y="178.30">4</tspan>
        </text>
        <path d="M 226.76 174.58 C 226.70 176.13 225.39 177.34 223.83 177.27 C 222.28 177.22 221.07 175.91 221.13 174.37 C 221.19 172.82 222.50 171.62 224.05 171.67 C 225.61 171.73 226.82 173.04 226.76 174.58 " fill="#FFFFFF" stroke="#000000" stroke-width="0.55" stroke-linecap="square" stroke-linejoin="bevel"/>
        <path d="M 282.35 291.58 C 282.29 293.12 280.98 294.33 279.43 294.27 C 277.87 294.21 276.66 292.91 276.72 291.36 C 276.78 289.81 278.09 288.61 279.64 288.67 C 281.20 288.73 282.41 290.03 282.35 291.58 " fill="#FFFFFF" stroke="#000000" stroke-width="0.55" stroke-linecap="square" stroke-linejoin="bevel"/>
        <path d="M 348.35 243.12 C 348.29 244.66 346.98 245.87 345.43 245.81 C 343.87 245.75 342.66 244.45 342.72 242.90 C 342.78 241.35 344.09 240.15 345.64 240.21 C 347.20 240.27 348.41 241.57 348.35 243.12 " fill="#FFFFFF" stroke="#000000" stroke-width="0.55" stroke-linecap="square" stroke-linejoin="bevel"/>
        <path d="M 593.61 244.12 C 593.55 245.66 592.24 246.87 590.69 246.81 C 589.13 246.75 587.92 245.45 587.98 243.90 C 588.04 242.35 589.35 241.15 590.91 241.21 C 592.46 241.27 593.67 242.57 593.61 244.12 " fill="#FFFFFF" stroke="#000000" stroke-width="0.55" stroke-linecap="square" stroke-linejoin="bevel"/>
        <path d="M 618.88 331.64 C 618.81 333.19 617.51 334.39 615.95 334.33 C 614.39 334.27 613.18 332.97 613.24 331.42 C 613.30 329.88 614.61 328.67 616.17 328.73 C 617.72 328.79 618.93 330.09 618.88 331.64 " fill="#FFFFFF" stroke="#000000" stroke-width="0.55" stroke-linecap="square" stroke-linejoin="bevel"/>
    </g>
</svg>