<?xml version="1.0" encoding="UTF-8" standalone="no"?>
<!-- Created with Inkscape (http://www.inkscape.org/) -->
<svg xmlns:dc="http://purl.org/dc/elements/1.1/" xmlns:cc="http://web.resource.org/cc/" xmlns:rdf="http://www.w3.org/1999/02/22-rdf-syntax-ns#" xmlns:svg="http://www.w3.org/2000/svg" xmlns="http://www.w3.org/2000/svg" xmlns:sodipodi="http://sodipodi.sourceforge.net/DTD/sodipodi-0.dtd" xmlns:inkscape="http://www.inkscape.org/namespaces/inkscape" width="767.34692" height="800" id="svg1901" sodipodi:version="0.32" inkscape:version="0.45.1" sodipodi:docname="Circuit Monaco.svg" sodipodi:docbase="C:\Documents and Settings\Lada\My Documents\My Pictures\Moottoriradat" version="1.0" inkscape:output_extension="org.inkscape.output.svg.inkscape">
  <defs id="defs1903"/>
  <sodipodi:namedview id="base" pagecolor="#ffffff" bordercolor="#666666" borderopacity="1.0" inkscape:pageopacity="0.0" inkscape:pageshadow="2" inkscape:zoom="0.59389036" inkscape:cx="422.51978" inkscape:cy="368.06489" inkscape:document-units="px" inkscape:current-layer="layer2" gridtolerance="10000" inkscape:window-width="1280" inkscape:window-height="744" inkscape:window-x="-4" inkscape:window-y="-4"/>
  <metadata id="metadata1906">
    <rdf:RDF>
      <cc:Work rdf:about="">
        <dc:format>image/svg+xml</dc:format>
        <dc:type rdf:resource="http://purl.org/dc/dcmitype/StillImage"/>
      </cc:Work>
    </rdf:RDF>
  </metadata>
  <g inkscape:groupmode="layer" id="layer2" inkscape:label="SVG">
    <path style="opacity:1;fill:none;fill-rule:evenodd;stroke:#bebebe;stroke-width:5.62532902;stroke-linecap:butt;stroke-linejoin:miter;stroke-miterlimit:4;stroke-dasharray:none;stroke-opacity:1" d="M 137.10418,443.29413 L 130.59115,466.87584 C 130.59115,466.87584 125.42559,479.00362 140.02391,493.15266" id="path2219" sodipodi:nodetypes="ccc"/>
    <path style="opacity:1;fill:none;fill-rule:evenodd;stroke:#bebebe;stroke-width:5.83367252;stroke-linecap:butt;stroke-linejoin:miter;stroke-miterlimit:4;stroke-dasharray:none;stroke-opacity:1" d="M 145.8632,487.08874 C 145.8632,487.08874 151.92702,492.02969 152.37625,506.17879 L 151.02872,549.74895 C 151.02872,549.74895 151.02872,558.28318 141.14677,570.41107" id="path2221" sodipodi:nodetypes="cccc"/>
    <path style="fill:none;fill-rule:evenodd;stroke:#bebebe;stroke-width:6.25036478;stroke-linecap:butt;stroke-linejoin:miter;stroke-miterlimit:4;stroke-dasharray:none;stroke-opacity:1" d="M 131.93864,573.55526 L 123.62887,585.23383 C 123.62887,585.23383 119.36181,589.95019 123.62887,603.42549 L 130.14201,617.79916" id="path3194" sodipodi:nodetypes="cccc"/>
    <path style="fill:none;fill-rule:evenodd;stroke:#bebebe;stroke-width:9.89641476;stroke-linecap:butt;stroke-linejoin:miter;stroke-miterlimit:4;stroke-dasharray:none;stroke-opacity:1" d="M 189.43328,674.62001 L 170.34329,670.57738 C 170.34329,670.57738 160.91056,667.88229 152.82538,655.08077 L 143.16808,634.19404" id="path3196" sodipodi:nodetypes="cccc"/>
    <path style="opacity:1;fill:none;fill-rule:evenodd;stroke:#000000;stroke-width:10.41727352;stroke-linecap:butt;stroke-linejoin:miter;stroke-miterlimit:4;stroke-dasharray:none;stroke-opacity:1" d="M 104.50658,653.97079 C 104.50658,653.97079 84.965034,629.56873 79.834481,596.08515 C 79.834481,596.08515 74.973956,554.23062 75.243997,532.3584 C 75.243997,532.3584 77.404225,475.92227 85.50508,450.80965 C 85.50508,450.80965 93.335916,414.35577 109.26763,387.89296 L 130.86994,353.05921 C 130.86994,353.05921 134.82662,338.97228 148.55254,344.16813 C 148.55254,344.16813 164.35349,348.1987 189.46616,348.1987 L 339.60219,344.95836 C 339.60219,344.95836 350.40331,344.41832 369.57538,337.39752 C 369.57538,337.39752 382.80679,333.6172 398.73845,333.6172 L 464.89557,330.64679 C 464.89557,330.64679 470.02615,332.80707 485.68779,322.27592 L 501.88952,308.50449 C 501.88952,308.50449 510.80047,296.08313 508.91022,291.22263 C 508.91022,291.22263 509.45033,284.20187 507.29006,278.53133 L 486.7679,237.48687 C 486.7679,237.48687 482.17744,228.90319 483.44088,219.42358 C 483.44088,219.42358 483.46952,211.9309 486.48858,209.16245 L 578.03766,122.45467 C 578.03766,122.45467 589.37879,111.92347 595.31947,111.92347 C 595.31947,111.92347 605.04054,109.49323 604.23043,121.10449 C 604.23043,121.10449 603.96043,158.09841 606.9307,172.13996 L 610.98113,190.77187 C 610.98113,190.77187 612.06126,202.38316 621.24229,200.76303 C 621.24229,200.76303 629.07308,200.49299 629.34315,190.77187 L 628.533,162.68893 C 628.533,162.68893 625.56265,148.37737 642.57452,147.83732 L 670.11743,146.75721 C 670.11743,146.75721 681.72868,145.13703 679.2984,160.52866 L 671.4676,194.01228 C 671.4676,194.01228 651.48542,262.59958 609.3609,309.5846 C 609.3609,309.5846 552.9249,355.21942 502.4296,366.29061 C 502.4296,366.29061 485.68779,372.23126 445.4535,373.58144 L 349.85202,375.86671 C 349.85202,375.86671 345.85264,380.74992 346.08288,385.46271 L 345.12781,394.57255 C 345.12781,394.57255 336.70589,395.4736 333.41139,395.55892 L 310.68925,395.55892 L 300.98805,390.32318 C 300.98805,390.32318 291.8071,382.2223 281.81601,384.38256 L 221.59959,384.65261 L 180.2852,386.27274 C 180.2852,386.27274 161.65323,385.46271 154.63245,402.47446 C 154.63245,402.47446 143.70623,423.70454 134.42303,477.53919 L 140.46862,483.78999 C 140.46862,483.78999 143.75175,485.72297 144.35154,493.48856 L 145.51777,552.0814 C 145.51777,552.0814 145.45152,560.71138 133.03009,576.91313 C 133.03009,576.91313 124.37277,587.95117 130.04328,610.09356 C 130.04328,610.09356 138.7007,636.31942 162.46329,654.41137 C 162.46329,654.41137 180.01513,670.61309 191.6264,674.93354 C 191.6264,674.93354 205.93792,680.33415 204.04778,693.83555 C 204.04778,693.83555 204.04778,703.82663 190.27624,703.28655 L 116.34799,695.18571 C 116.34799,695.18571 102.80682,695.4359 106.85727,682.20447 C 106.85727,682.20447 115.06333,666.1136 104.50658,653.97079 z " id="path4167" sodipodi:nodetypes="ccccccccccccccccccccccccccccccccccccccccccccccccccccccccc"/>
    <path style="fill:none;fill-rule:evenodd;stroke:#000000;stroke-width:6.25036478;stroke-linecap:butt;stroke-linejoin:miter;stroke-miterlimit:4;stroke-dasharray:none;stroke-opacity:1" d="M 152.60657,698.85942 C 152.60657,698.85942 144.03496,696.8239 134.61244,682.76264 C 134.61244,682.76264 118.09301,658.44017 111.5825,640.29509 C 111.5825,640.29509 100.13058,611.44785 98.101112,592.60285 C 98.101112,592.60285 93.752277,566.65481 94.477085,548.09984 L 95.346845,509.68507 C 95.346845,509.68507 96.071654,508.38043 91.142973,500.40751 L 79.111196,482.57735" id="path7076" sodipodi:nodetypes="cccccccc"/>
    <path style="opacity:1;fill:none;fill-rule:evenodd;stroke:#8c8c8c;stroke-width:26.04319191;stroke-linecap:butt;stroke-linejoin:miter;stroke-miterlimit:4;stroke-dasharray:none;stroke-opacity:1" d="M 671.44419,194.32385 C 671.44419,194.32385 665.90676,233.18771 620.63342,298.76826 C 620.63342,298.76826 586.75955,344.33679 504.09115,366.11283" id="path9016" sodipodi:nodetypes="ccc"/>
    <g style="opacity:1;display:inline" transform="matrix(-0.7816189,-0.9282757,0.9282757,-0.7816189,340.82983,1137.5001)" id="g12355">
      <rect width="3.6360872" height="3.794178" x="503.13138" y="-225.66817" transform="matrix(0.7650015,0.6440285,-0.6440285,0.7650015,0,0)" style="fill:#000000;fill-opacity:1;fill-rule:nonzero;stroke:none;stroke-width:1.29999995;stroke-miterlimit:4;stroke-dasharray:none;stroke-opacity:1" id="rect9376"/>
      <rect width="3.6360872" height="3.794178" x="503.13843" y="-210.80884" transform="matrix(0.7650015,0.6440285,-0.6440285,0.7650015,0,0)" style="fill:#000000;fill-opacity:1;fill-rule:nonzero;stroke:none;stroke-width:1.29999995;stroke-miterlimit:4;stroke-dasharray:none;stroke-opacity:1" id="rect10347"/>
      <rect width="3.6360872" height="3.794178" x="503.22794" y="-233.16934" transform="matrix(0.7650015,0.6440285,-0.6440285,0.7650015,0,0)" style="fill:#000000;fill-opacity:1;fill-rule:nonzero;stroke:none;stroke-width:1.29999995;stroke-miterlimit:4;stroke-dasharray:none;stroke-opacity:1" id="rect10349"/>
      <rect width="3.6360872" height="3.794178" x="503.10162" y="-221.97508" transform="matrix(0.7650015,0.6440285,-0.6440285,0.7650015,0,0)" style="fill:#ffffff;fill-opacity:1;fill-rule:nonzero;stroke:none;stroke-width:1.29999995;stroke-miterlimit:4;stroke-dasharray:none;stroke-opacity:1" id="rect10351"/>
      <rect width="3.6360872" height="3.794178" x="503.14481" y="-229.39552" transform="matrix(0.7650015,0.6440285,-0.6440285,0.7650015,0,0)" style="fill:#ffffff;fill-opacity:1;fill-rule:nonzero;stroke:none;stroke-width:1.29999995;stroke-miterlimit:4;stroke-dasharray:none;stroke-opacity:1" id="rect12293"/>
      <rect width="3.6360872" height="3.794178" x="503.1427" y="-214.46121" transform="matrix(0.7650015,0.6440285,-0.6440285,0.7650015,0,0)" style="fill:#ffffff;fill-opacity:1;fill-rule:nonzero;stroke:none;stroke-width:1.29999995;stroke-miterlimit:4;stroke-dasharray:none;stroke-opacity:1" id="rect12295"/>
      <rect width="3.6360872" height="3.794178" x="503.14166" y="-206.99403" transform="matrix(0.7650015,0.6440285,-0.6440285,0.7650015,0,0)" style="fill:#ffffff;fill-opacity:1;fill-rule:nonzero;stroke:none;stroke-width:1.29999995;stroke-miterlimit:4;stroke-dasharray:none;stroke-opacity:1" id="rect12297"/>
      <rect width="3.6360872" height="3.794178" x="506.87115" y="-233.22285" transform="matrix(0.7650015,0.6440285,-0.6440285,0.7650015,0,0)" style="fill:#ffffff;fill-opacity:1;fill-rule:nonzero;stroke:none;stroke-width:1.29999995;stroke-miterlimit:4;stroke-dasharray:none;stroke-opacity:1" id="rect12299"/>
      <rect width="3.6360872" height="3.794178" x="503.1145" y="-203.19873" transform="matrix(0.7650015,0.6440285,-0.6440285,0.7650015,0,0)" style="fill:#000000;fill-opacity:1;fill-rule:nonzero;stroke:none;stroke-width:1.29999995;stroke-miterlimit:4;stroke-dasharray:none;stroke-opacity:1" id="rect12301"/>
      <rect width="3.6360872" height="3.794178" x="503.12387" y="-218.21779" transform="matrix(0.7650015,0.6440285,-0.6440285,0.7650015,0,0)" style="fill:#000000;fill-opacity:1;fill-rule:nonzero;stroke:none;stroke-width:1.29999995;stroke-miterlimit:4;stroke-dasharray:none;stroke-opacity:1" id="rect12303"/>
      <rect width="3.6360872" height="3.794178" x="506.6814" y="-221.93484" transform="matrix(0.7650015,0.6440285,-0.6440285,0.7650015,0,0)" style="fill:#000000;fill-opacity:1;fill-rule:nonzero;stroke:none;stroke-width:1.29999995;stroke-miterlimit:4;stroke-dasharray:none;stroke-opacity:1" id="rect12321"/>
      <rect width="3.6360872" height="3.794178" x="506.68845" y="-207.07552" transform="matrix(0.7650015,0.6440285,-0.6440285,0.7650015,0,0)" style="fill:#000000;fill-opacity:1;fill-rule:nonzero;stroke:none;stroke-width:1.29999995;stroke-miterlimit:4;stroke-dasharray:none;stroke-opacity:1" id="rect12323"/>
      <rect width="3.6360872" height="3.794178" x="506.77795" y="-229.43602" transform="matrix(0.7650015,0.6440285,-0.6440285,0.7650015,0,0)" style="fill:#000000;fill-opacity:1;fill-rule:nonzero;stroke:none;stroke-width:1.29999995;stroke-miterlimit:4;stroke-dasharray:none;stroke-opacity:1" id="rect12325"/>
      <rect width="3.6360872" height="3.794178" x="506.65164" y="-218.24176" transform="matrix(0.7650015,0.6440285,-0.6440285,0.7650015,0,0)" style="fill:#ffffff;fill-opacity:1;fill-rule:nonzero;stroke:none;stroke-width:1.29999995;stroke-miterlimit:4;stroke-dasharray:none;stroke-opacity:1" id="rect12327"/>
      <rect width="3.6360872" height="3.794178" x="506.69482" y="-225.6622" transform="matrix(0.7650015,0.6440285,-0.6440285,0.7650015,0,0)" style="fill:#ffffff;fill-opacity:1;fill-rule:nonzero;stroke:none;stroke-width:1.29999995;stroke-miterlimit:4;stroke-dasharray:none;stroke-opacity:1" id="rect12329"/>
      <rect width="3.6360872" height="3.794178" x="506.69272" y="-210.72789" transform="matrix(0.7650015,0.6440285,-0.6440285,0.7650015,0,0)" style="fill:#ffffff;fill-opacity:1;fill-rule:nonzero;stroke:none;stroke-width:1.29999995;stroke-miterlimit:4;stroke-dasharray:none;stroke-opacity:1" id="rect12331"/>
      <rect width="3.6360872" height="3.794178" x="506.69168" y="-203.26071" transform="matrix(0.7650015,0.6440285,-0.6440285,0.7650015,0,0)" style="fill:#ffffff;fill-opacity:1;fill-rule:nonzero;stroke:none;stroke-width:1.29999995;stroke-miterlimit:4;stroke-dasharray:none;stroke-opacity:1" id="rect12333"/>
      <rect width="3.6360872" height="3.794178" x="506.67389" y="-214.48447" transform="matrix(0.7650015,0.6440285,-0.6440285,0.7650015,0,0)" style="fill:#000000;fill-opacity:1;fill-rule:nonzero;stroke:none;stroke-width:1.29999995;stroke-miterlimit:4;stroke-dasharray:none;stroke-opacity:1" id="rect12335"/>
      <rect width="3.6360872" height="3.794178" x="510.23587" y="-225.71014" transform="matrix(0.7650015,0.6440285,-0.6440285,0.7650015,0,0)" style="fill:#000000;fill-opacity:1;fill-rule:nonzero;stroke:none;stroke-width:1.29999995;stroke-miterlimit:4;stroke-dasharray:none;stroke-opacity:1" id="rect12337"/>
      <rect width="3.6360872" height="3.794178" x="510.24292" y="-210.85081" transform="matrix(0.7650015,0.6440285,-0.6440285,0.7650015,0,0)" style="fill:#000000;fill-opacity:1;fill-rule:nonzero;stroke:none;stroke-width:1.29999995;stroke-miterlimit:4;stroke-dasharray:none;stroke-opacity:1" id="rect12339"/>
      <rect width="3.6360872" height="3.794178" x="510.33243" y="-233.21132" transform="matrix(0.7650015,0.6440285,-0.6440285,0.7650015,0,0)" style="fill:#000000;fill-opacity:1;fill-rule:nonzero;stroke:none;stroke-width:1.29999995;stroke-miterlimit:4;stroke-dasharray:none;stroke-opacity:1" id="rect12341"/>
      <rect width="3.6360872" height="3.794178" x="510.20612" y="-222.01706" transform="matrix(0.7650015,0.6440285,-0.6440285,0.7650015,0,0)" style="fill:#ffffff;fill-opacity:1;fill-rule:nonzero;stroke:none;stroke-width:1.29999995;stroke-miterlimit:4;stroke-dasharray:none;stroke-opacity:1" id="rect12343"/>
      <rect width="3.6360872" height="3.794178" x="510.2493" y="-229.4375" transform="matrix(0.7650015,0.6440285,-0.6440285,0.7650015,0,0)" style="fill:#ffffff;fill-opacity:1;fill-rule:nonzero;stroke:none;stroke-width:1.29999995;stroke-miterlimit:4;stroke-dasharray:none;stroke-opacity:1" id="rect12345"/>
      <rect width="3.6360872" height="3.794178" x="510.24719" y="-214.50319" transform="matrix(0.7650015,0.6440285,-0.6440285,0.7650015,0,0)" style="fill:#ffffff;fill-opacity:1;fill-rule:nonzero;stroke:none;stroke-width:1.29999995;stroke-miterlimit:4;stroke-dasharray:none;stroke-opacity:1" id="rect12347"/>
      <rect width="3.6360872" height="3.794178" x="510.24615" y="-207.03601" transform="matrix(0.7650015,0.6440285,-0.6440285,0.7650015,0,0)" style="fill:#ffffff;fill-opacity:1;fill-rule:nonzero;stroke:none;stroke-width:1.29999995;stroke-miterlimit:4;stroke-dasharray:none;stroke-opacity:1" id="rect12349"/>
      <rect width="3.6360872" height="3.794178" x="510.22836" y="-218.25977" transform="matrix(0.7650015,0.6440285,-0.6440285,0.7650015,0,0)" style="fill:#000000;fill-opacity:1;fill-rule:nonzero;stroke:none;stroke-width:1.29999995;stroke-miterlimit:4;stroke-dasharray:none;stroke-opacity:1" id="rect12351"/>
      <rect width="3.6360872" height="3.794178" x="510.32791" y="-203.24594" transform="matrix(0.7650015,0.6440285,-0.6440285,0.7650015,0,0)" style="fill:#000000;fill-opacity:1;fill-rule:nonzero;stroke:none;stroke-width:1.29999995;stroke-miterlimit:4;stroke-dasharray:none;stroke-opacity:1" id="rect12353"/>
    </g>
    <path style="opacity:1;fill:#ff0000;fill-rule:evenodd;stroke:#ffffff;stroke-width:1.01399028px;stroke-linecap:butt;stroke-linejoin:miter;stroke-opacity:0;display:inline" d="M 50.139352,556.08868 L 64.715704,556.87586 L 57.632493,528.99778 L 50.139352,556.08868 z " id="path2302"/>
    <path style="opacity:1;fill:#ff0000;fill-rule:evenodd;stroke:#ffffff;stroke-width:1.01399028px;stroke-linecap:butt;stroke-linejoin:miter;stroke-opacity:0;display:inline" d="M 572.44459,377.00951 L 567.4478,363.2938 L 544.58641,380.74993 L 572.44459,377.00951 z " id="path12074"/>
    <path sodipodi:type="arc" style="opacity:1;fill:#ffffff;fill-opacity:1;stroke:#000000;stroke-width:1;stroke-linecap:square;stroke-linejoin:bevel;stroke-miterlimit:4;stroke-dasharray:none;stroke-dashoffset:0;stroke-opacity:1;display:inline" id="path2577" sodipodi:cx="105.7745" sodipodi:cy="577.21741" sodipodi:rx="5.1050668" sodipodi:ry="5.0739384" d="M 110.8757,577.41486 A 5.1050668,5.0739384 0 1 1 110.87576,577.41326" sodipodi:start="0.038924886" sodipodi:end="6.3217938" sodipodi:open="true" transform="matrix(0.8568187,0,0,0.8568187,18.886199,170.29615)"/>
    <path sodipodi:type="arc" style="opacity:1;fill:#ffffff;fill-opacity:1;stroke:#000000;stroke-width:1;stroke-linecap:square;stroke-linejoin:bevel;stroke-miterlimit:4;stroke-dasharray:none;stroke-dashoffset:0;stroke-opacity:1;display:inline" id="path12077" sodipodi:cx="105.7745" sodipodi:cy="577.21741" sodipodi:rx="5.1050668" sodipodi:ry="5.0739384" d="M 110.8757,577.41486 A 5.1050668,5.0739384 0 1 1 110.87576,577.41326" sodipodi:start="0.038924886" sodipodi:end="6.3217938" sodipodi:open="true" transform="matrix(0.8568187,0,0,0.8568187,16.338132,195.88759)"/>
    <path sodipodi:type="arc" style="opacity:1;fill:#ffffff;fill-opacity:1;stroke:#000000;stroke-width:1;stroke-linecap:square;stroke-linejoin:bevel;stroke-miterlimit:4;stroke-dasharray:none;stroke-dashoffset:0;stroke-opacity:1;display:inline" id="path12079" sodipodi:cx="105.7745" sodipodi:cy="577.21741" sodipodi:rx="5.1050668" sodipodi:ry="5.0739384" d="M 110.8757,577.41486 A 5.1050668,5.0739384 0 1 1 110.87576,577.41326" sodipodi:start="0.038924886" sodipodi:end="6.3217938" sodipodi:open="true" transform="matrix(0.8568187,0,0,0.8568187,113.38632,198.76795)"/>
    <path sodipodi:type="arc" style="opacity:1;fill:#ffffff;fill-opacity:1;stroke:#000000;stroke-width:1;stroke-linecap:square;stroke-linejoin:bevel;stroke-miterlimit:4;stroke-dasharray:none;stroke-dashoffset:0;stroke-opacity:1;display:inline" id="path12081" sodipodi:cx="105.7745" sodipodi:cy="577.21741" sodipodi:rx="5.1050668" sodipodi:ry="5.0739384" d="M 110.8757,577.41486 A 5.1050668,5.0739384 0 1 1 110.87576,577.41326" sodipodi:start="0.038924886" sodipodi:end="6.3217938" sodipodi:open="true" transform="matrix(0.8568187,0,0,0.8568187,48.355153,-150.64951)"/>
    <path sodipodi:type="arc" style="opacity:1;fill:#ffffff;fill-opacity:1;stroke:#000000;stroke-width:1;stroke-linecap:square;stroke-linejoin:bevel;stroke-miterlimit:4;stroke-dasharray:none;stroke-dashoffset:0;stroke-opacity:1;display:inline" id="path12083" sodipodi:cx="105.7745" sodipodi:cy="577.21741" sodipodi:rx="5.1050668" sodipodi:ry="5.0739384" d="M 110.8757,577.41486 A 5.1050668,5.0739384 0 1 1 110.87576,577.41326" sodipodi:start="0.038924886" sodipodi:end="6.3217938" sodipodi:open="true" transform="matrix(0.8568187,0,0,0.8568187,254.97015,-150.31715)"/>
    <path sodipodi:type="arc" style="opacity:1;fill:#ffffff;fill-opacity:1;stroke:#000000;stroke-width:1;stroke-linecap:square;stroke-linejoin:bevel;stroke-miterlimit:4;stroke-dasharray:none;stroke-dashoffset:0;stroke-opacity:1;display:inline" id="path12085" sodipodi:cx="105.7745" sodipodi:cy="577.21741" sodipodi:rx="5.1050668" sodipodi:ry="5.0739384" d="M 110.8757,577.41486 A 5.1050668,5.0739384 0 1 1 110.87576,577.41326" sodipodi:start="0.038924886" sodipodi:end="6.3217938" sodipodi:open="true" transform="matrix(0.8568187,0,0,0.8568187,415.49839,-192.74806)"/>
    <path sodipodi:type="arc" style="opacity:1;fill:#ffffff;fill-opacity:1;stroke:#000000;stroke-width:1;stroke-linecap:square;stroke-linejoin:bevel;stroke-miterlimit:4;stroke-dasharray:none;stroke-dashoffset:0;stroke-opacity:1;display:inline" id="path12087" sodipodi:cx="105.7745" sodipodi:cy="577.21741" sodipodi:rx="5.1050668" sodipodi:ry="5.0739384" d="M 110.8757,577.41486 A 5.1050668,5.0739384 0 1 1 110.87576,577.41326" sodipodi:start="0.038924886" sodipodi:end="6.3217938" sodipodi:open="true" transform="matrix(0.8568187,0,0,0.8568187,393.00809,-277.53457)"/>
    <path sodipodi:type="arc" style="opacity:1;fill:#ffffff;fill-opacity:1;stroke:#000000;stroke-width:1;stroke-linecap:square;stroke-linejoin:bevel;stroke-miterlimit:4;stroke-dasharray:none;stroke-dashoffset:0;stroke-opacity:1;display:inline" id="path12089" sodipodi:cx="105.7745" sodipodi:cy="577.21741" sodipodi:rx="5.1050668" sodipodi:ry="5.0739384" d="M 110.8757,577.41486 A 5.1050668,5.0739384 0 1 1 110.87576,577.41326" sodipodi:start="0.038924886" sodipodi:end="6.3217938" sodipodi:open="true" transform="matrix(0.8568187,0,0,0.8568187,504.81249,-382.94657)"/>
    <path sodipodi:type="arc" style="opacity:1;fill:#ffffff;fill-opacity:1;stroke:#000000;stroke-width:1;stroke-linecap:square;stroke-linejoin:bevel;stroke-miterlimit:4;stroke-dasharray:none;stroke-dashoffset:0;stroke-opacity:1;display:inline" id="path12091" sodipodi:cx="105.7745" sodipodi:cy="577.21741" sodipodi:rx="5.1050668" sodipodi:ry="5.0739384" d="M 110.8757,577.41486 A 5.1050668,5.0739384 0 1 1 110.87576,577.41326" sodipodi:start="0.038924886" sodipodi:end="6.3217938" sodipodi:open="true" transform="matrix(0.8568187,0,0,0.8568187,530.25687,-293.82891)"/>
    <path sodipodi:type="arc" style="opacity:1;fill:#ffffff;fill-opacity:1;stroke:#000000;stroke-width:1;stroke-linecap:square;stroke-linejoin:bevel;stroke-miterlimit:4;stroke-dasharray:none;stroke-dashoffset:0;stroke-opacity:1;display:inline" id="path12093" sodipodi:cx="105.7745" sodipodi:cy="577.21741" sodipodi:rx="5.1050668" sodipodi:ry="5.0739384" d="M 110.8757,577.41486 A 5.1050668,5.0739384 0 1 1 110.87576,577.41326" sodipodi:start="0.038924886" sodipodi:end="6.3217938" sodipodi:open="true" transform="matrix(0.8568187,0,0,0.8568187,541.53757,-343.088)"/>
    <path sodipodi:type="arc" style="opacity:1;fill:#ffffff;fill-opacity:1;stroke:#000000;stroke-width:1;stroke-linecap:square;stroke-linejoin:bevel;stroke-miterlimit:4;stroke-dasharray:none;stroke-dashoffset:0;stroke-opacity:1;display:inline" id="path12095" sodipodi:cx="105.7745" sodipodi:cy="577.21741" sodipodi:rx="5.1050668" sodipodi:ry="5.0739384" d="M 110.8757,577.41486 A 5.1050668,5.0739384 0 1 1 110.87576,577.41326" sodipodi:start="0.038924886" sodipodi:end="6.3217938" sodipodi:open="true" transform="matrix(0.8568187,0,0,0.8568187,587.78851,-343.84006)"/>
    <path sodipodi:type="arc" style="opacity:1;fill:#ffffff;fill-opacity:1;stroke:#8c8c8c;stroke-width:1;stroke-linecap:square;stroke-linejoin:bevel;stroke-miterlimit:4;stroke-dasharray:none;stroke-dashoffset:0;stroke-opacity:1;display:inline" id="path12097" sodipodi:cx="105.7745" sodipodi:cy="577.21741" sodipodi:rx="5.1050668" sodipodi:ry="5.0739384" d="M 110.8757,577.41486 A 5.1050668,5.0739384 0 1 1 110.87576,577.41326" sodipodi:start="0.038924886" sodipodi:end="6.3217938" sodipodi:open="true" transform="matrix(0.8568187,0,0,0.8568187,514.69125,-179.91684)"/>
    <path sodipodi:type="arc" style="opacity:1;fill:#ffffff;fill-opacity:1;stroke:#000000;stroke-width:1;stroke-linecap:square;stroke-linejoin:bevel;stroke-miterlimit:4;stroke-dasharray:none;stroke-dashoffset:0;stroke-opacity:1;display:inline" id="path12099" sodipodi:cx="105.7745" sodipodi:cy="577.21741" sodipodi:rx="5.1050668" sodipodi:ry="5.0739384" d="M 110.8757,577.41486 A 5.1050668,5.0739384 0 1 1 110.87576,577.41326" sodipodi:start="0.038924886" sodipodi:end="6.3217938" sodipodi:open="true" transform="matrix(0.8568187,0,0,0.8568187,258.39158,-117.22302)"/>
    <path sodipodi:type="arc" style="opacity:1;fill:#ffffff;fill-opacity:1;stroke:#000000;stroke-width:1;stroke-linecap:square;stroke-linejoin:bevel;stroke-miterlimit:4;stroke-dasharray:none;stroke-dashoffset:0;stroke-opacity:1;display:inline" id="path12101" sodipodi:cx="105.7745" sodipodi:cy="577.21741" sodipodi:rx="5.1050668" sodipodi:ry="5.0739384" d="M 110.8757,577.41486 A 5.1050668,5.0739384 0 1 1 110.87576,577.41326" sodipodi:start="0.038924886" sodipodi:end="6.3217938" sodipodi:open="true" transform="matrix(0.8568187,0,0,0.8568187,211.88994,-103.43549)"/>
    <path sodipodi:type="arc" style="opacity:1;fill:#ffffff;fill-opacity:1;stroke:#000000;stroke-width:1;stroke-linecap:square;stroke-linejoin:bevel;stroke-miterlimit:4;stroke-dasharray:none;stroke-dashoffset:0;stroke-opacity:1;display:inline" id="path12103" sodipodi:cx="105.7745" sodipodi:cy="577.21741" sodipodi:rx="5.1050668" sodipodi:ry="5.0739384" d="M 110.8757,577.41486 A 5.1050668,5.0739384 0 1 1 110.87576,577.41326" sodipodi:start="0.038924886" sodipodi:end="6.3217938" sodipodi:open="true" transform="matrix(0.8568187,0,0,0.8568187,74.515901,-104.31288)"/>
    <path sodipodi:type="arc" style="opacity:1;fill:#ffffff;fill-opacity:1;stroke:#000000;stroke-width:1;stroke-linecap:square;stroke-linejoin:bevel;stroke-miterlimit:4;stroke-dasharray:none;stroke-dashoffset:0;stroke-opacity:1;display:inline" id="path12105" sodipodi:cx="105.7745" sodipodi:cy="577.21741" sodipodi:rx="5.1050668" sodipodi:ry="5.0739384" d="M 110.8757,577.41486 A 5.1050668,5.0739384 0 1 1 110.87576,577.41326" sodipodi:start="0.038924886" sodipodi:end="6.3217938" sodipodi:open="true" transform="matrix(0.8568187,0,0,0.8568187,44.308648,-18.328759)"/>
    <path sodipodi:type="arc" style="opacity:1;fill:#ffffff;fill-opacity:1;stroke:#000000;stroke-width:1;stroke-linecap:square;stroke-linejoin:bevel;stroke-miterlimit:4;stroke-dasharray:none;stroke-dashoffset:0;stroke-opacity:1;display:inline" id="path12107" sodipodi:cx="105.7745" sodipodi:cy="577.21741" sodipodi:rx="5.1050668" sodipodi:ry="5.0739384" d="M 110.8757,577.41486 A 5.1050668,5.0739384 0 1 1 110.87576,577.41326" sodipodi:start="0.038924886" sodipodi:end="6.3217938" sodipodi:open="true" transform="matrix(0.8568187,0,0,0.8568187,54.586634,49.731579)"/>
    <path sodipodi:type="arc" style="opacity:1;fill:#ffffff;fill-opacity:1;stroke:#000000;stroke-width:1;stroke-linecap:square;stroke-linejoin:bevel;stroke-miterlimit:4;stroke-dasharray:none;stroke-dashoffset:0;stroke-opacity:1;display:inline" id="path12109" sodipodi:cx="105.7745" sodipodi:cy="577.21741" sodipodi:rx="5.1050668" sodipodi:ry="5.0739384" d="M 110.8757,577.41486 A 5.1050668,5.0739384 0 1 1 110.87576,577.41326" sodipodi:start="0.038924886" sodipodi:end="6.3217938" sodipodi:open="true" transform="matrix(0.8568187,0,0,0.8568187,51.453088,138.09717)"/>
    <path sodipodi:type="arc" style="opacity:1;fill:none;fill-opacity:1;stroke:#000000;stroke-width:1;stroke-linecap:square;stroke-linejoin:bevel;stroke-miterlimit:4;stroke-dasharray:none;stroke-dashoffset:0;stroke-opacity:1;display:inline" id="path2327" sodipodi:cx="282.84067" sodipodi:cy="498.91376" sodipodi:rx="10.878488" sodipodi:ry="10.125361" d="M 293.71092,499.30779 A 10.878488,10.125361 0 1 1 293.71105,499.30459" sodipodi:start="0.038924886" sodipodi:end="6.3217938" sodipodi:open="true" transform="matrix(1.4764832,0,0,1.5465886,-233.64019,-355.58323)"/>
    <path sodipodi:type="arc" style="opacity:1;fill:none;fill-opacity:1;stroke:#000000;stroke-width:1;stroke-linecap:square;stroke-linejoin:bevel;stroke-miterlimit:4;stroke-dasharray:none;stroke-dashoffset:0;stroke-opacity:1;display:inline" id="path15019" sodipodi:cx="282.84067" sodipodi:cy="498.91376" sodipodi:rx="10.878488" sodipodi:ry="10.125361" d="M 293.71092,499.30779 A 10.878488,10.125361 0 1 1 293.71105,499.30459" sodipodi:start="0.038924886" sodipodi:end="6.3217938" sodipodi:open="true" transform="matrix(1.4764832,0,0,1.5465886,-246.16261,-295.5493)"/>
    <path sodipodi:type="arc" style="opacity:1;fill:none;fill-opacity:1;stroke:#000000;stroke-width:1;stroke-linecap:square;stroke-linejoin:bevel;stroke-miterlimit:4;stroke-dasharray:none;stroke-dashoffset:0;stroke-opacity:1;display:inline" id="path15021" sodipodi:cx="282.84067" sodipodi:cy="498.91376" sodipodi:rx="10.878488" sodipodi:ry="10.125361" d="M 293.71092,499.30779 A 10.878488,10.125361 0 1 1 293.71105,499.30459" sodipodi:start="0.038924886" sodipodi:end="6.3217938" sodipodi:open="true" transform="matrix(1.4764832,0,0,1.5465886,-115.04553,-350.79521)"/>
    <path sodipodi:type="arc" style="opacity:1;fill:none;fill-opacity:1;stroke:#000000;stroke-width:1;stroke-linecap:square;stroke-linejoin:bevel;stroke-miterlimit:4;stroke-dasharray:none;stroke-dashoffset:0;stroke-opacity:1;display:inline" id="path15023" sodipodi:cx="282.84067" sodipodi:cy="498.91376" sodipodi:rx="10.878488" sodipodi:ry="10.125361" d="M 293.71092,499.30779 A 10.878488,10.125361 0 1 1 293.71105,499.30459" sodipodi:start="0.038924886" sodipodi:end="6.3217938" sodipodi:open="true" transform="matrix(1.4764832,0,0,1.5465886,-42.489209,-367.73734)"/>
    <path sodipodi:type="arc" style="opacity:1;fill:none;fill-opacity:1;stroke:#000000;stroke-width:1;stroke-linecap:square;stroke-linejoin:bevel;stroke-miterlimit:4;stroke-dasharray:none;stroke-dashoffset:0;stroke-opacity:1;display:inline" id="path15025" sodipodi:cx="282.84067" sodipodi:cy="498.91376" sodipodi:rx="10.878488" sodipodi:ry="10.125361" d="M 293.71092,499.30779 A 10.878488,10.125361 0 1 1 293.71105,499.30459" sodipodi:start="0.038924886" sodipodi:end="6.3217938" sodipodi:open="true" transform="matrix(1.4764832,0,0,1.5465886,-244.68935,-211.5755)"/>
    <path sodipodi:type="arc" style="opacity:1;fill:none;fill-opacity:1;stroke:#000000;stroke-width:1;stroke-linecap:square;stroke-linejoin:bevel;stroke-miterlimit:4;stroke-dasharray:none;stroke-dashoffset:0;stroke-opacity:1;display:inline" id="path15027" sodipodi:cx="282.84067" sodipodi:cy="498.91376" sodipodi:rx="10.878488" sodipodi:ry="10.125361" d="M 293.71092,499.30779 A 10.878488,10.125361 0 1 1 293.71105,499.30459" sodipodi:start="0.038924886" sodipodi:end="6.3217938" sodipodi:open="true" transform="matrix(1.4764832,0,0,1.5465886,-252.42378,-154.48799)"/>
    <path sodipodi:type="arc" style="opacity:1;fill:none;fill-opacity:1;stroke:#000000;stroke-width:1;stroke-linecap:square;stroke-linejoin:bevel;stroke-miterlimit:4;stroke-dasharray:none;stroke-dashoffset:0;stroke-opacity:1;display:inline" id="path15029" sodipodi:cx="282.84067" sodipodi:cy="498.91376" sodipodi:rx="10.878488" sodipodi:ry="10.125361" d="M 293.71092,499.30779 A 10.878488,10.125361 0 1 1 293.71105,499.30459" sodipodi:start="0.038924886" sodipodi:end="6.3217938" sodipodi:open="true" transform="matrix(1.4764832,0,0,1.5465886,-185.3921,-73.092288)"/>
    <path sodipodi:type="arc" style="opacity:1;fill:none;fill-opacity:1;stroke:#000000;stroke-width:1;stroke-linecap:square;stroke-linejoin:bevel;stroke-miterlimit:4;stroke-dasharray:none;stroke-dashoffset:0;stroke-opacity:1;display:inline" id="path15031" sodipodi:cx="282.84067" sodipodi:cy="498.91376" sodipodi:rx="10.878488" sodipodi:ry="10.125361" d="M 293.71092,499.30779 A 10.878488,10.125361 0 1 1 293.71105,499.30459" sodipodi:start="0.038924886" sodipodi:end="6.3217938" sodipodi:open="true" transform="matrix(1.4764832,0,0,1.5465886,-333.45123,-67.199385)"/>
    <path sodipodi:type="arc" style="opacity:1;fill:none;fill-opacity:1;stroke:#000000;stroke-width:1;stroke-linecap:square;stroke-linejoin:bevel;stroke-miterlimit:4;stroke-dasharray:none;stroke-dashoffset:0;stroke-opacity:1;display:inline" id="path15033" sodipodi:cx="282.84067" sodipodi:cy="498.91376" sodipodi:rx="10.878488" sodipodi:ry="10.125361" d="M 293.71092,499.30779 A 10.878488,10.125361 0 1 1 293.71105,499.30459" sodipodi:start="0.038924886" sodipodi:end="6.3217938" sodipodi:open="true" transform="matrix(1.4764832,0,0,1.5465886,-338.60751,-106.97646)"/>
    <path sodipodi:type="arc" style="opacity:1;fill:none;fill-opacity:1;stroke:#000000;stroke-width:1;stroke-linecap:square;stroke-linejoin:bevel;stroke-miterlimit:4;stroke-dasharray:none;stroke-dashoffset:0;stroke-opacity:1;display:inline" id="path15035" sodipodi:cx="282.84067" sodipodi:cy="498.91376" sodipodi:rx="10.878488" sodipodi:ry="10.125361" d="M 293.71092,499.30779 A 10.878488,10.125361 0 1 1 293.71105,499.30459" sodipodi:start="0.038924886" sodipodi:end="6.3217938" sodipodi:open="true" transform="matrix(1.4764832,0,0,1.5465886,-289.62274,-457.60407)"/>
    <path sodipodi:type="arc" style="opacity:1;fill:none;fill-opacity:1;stroke:#000000;stroke-width:1;stroke-linecap:square;stroke-linejoin:bevel;stroke-miterlimit:4;stroke-dasharray:none;stroke-dashoffset:0;stroke-opacity:1;display:inline" id="path15037" sodipodi:cx="282.84067" sodipodi:cy="498.91376" sodipodi:rx="10.878488" sodipodi:ry="10.125361" d="M 293.71092,499.30779 A 10.878488,10.125361 0 1 1 293.71105,499.30459" sodipodi:start="0.038924886" sodipodi:end="6.3217938" sodipodi:open="true" transform="matrix(1.4764832,0,0,1.5465886,-74.531862,-457.97238)"/>
    <path sodipodi:type="arc" style="opacity:1;fill:none;fill-opacity:1;stroke:#000000;stroke-width:1;stroke-linecap:square;stroke-linejoin:bevel;stroke-miterlimit:4;stroke-dasharray:none;stroke-dashoffset:0;stroke-opacity:1;display:inline" id="path15039" sodipodi:cx="282.84067" sodipodi:cy="498.91376" sodipodi:rx="10.878488" sodipodi:ry="10.125361" d="M 293.71092,499.30779 A 10.878488,10.125361 0 1 1 293.71105,499.30459" sodipodi:start="0.038924886" sodipodi:end="6.3217938" sodipodi:open="true" transform="matrix(1.4764832,0,0,1.5465886,63.214694,-482.64887)"/>
    <path sodipodi:type="arc" style="opacity:1;fill:none;fill-opacity:1;stroke:#000000;stroke-width:1;stroke-linecap:square;stroke-linejoin:bevel;stroke-miterlimit:4;stroke-dasharray:none;stroke-dashoffset:0;stroke-opacity:1;display:inline" id="path15041" sodipodi:cx="282.84067" sodipodi:cy="498.91376" sodipodi:rx="10.878488" sodipodi:ry="10.125361" d="M 293.71092,499.30779 A 10.878488,10.125361 0 1 1 293.71105,499.30459" sodipodi:start="0.038924886" sodipodi:end="6.3217938" sodipodi:open="true" transform="matrix(1.4764832,0,0,1.5465886,42.589535,-573.62054)"/>
    <path sodipodi:type="arc" style="opacity:1;fill:none;fill-opacity:1;stroke:#000000;stroke-width:1;stroke-linecap:square;stroke-linejoin:bevel;stroke-miterlimit:4;stroke-dasharray:none;stroke-dashoffset:0;stroke-opacity:1;display:inline" id="path15043" sodipodi:cx="282.84067" sodipodi:cy="498.91376" sodipodi:rx="10.878488" sodipodi:ry="10.125361" d="M 293.71092,499.30779 A 10.878488,10.125361 0 1 1 293.71105,499.30459" sodipodi:start="0.038924886" sodipodi:end="6.3217938" sodipodi:open="true" transform="matrix(1.4764832,0,0,1.5465886,199.48799,-544.89269)"/>
    <path sodipodi:type="arc" style="opacity:1;fill:none;fill-opacity:1;stroke:#000000;stroke-width:1;stroke-linecap:square;stroke-linejoin:bevel;stroke-miterlimit:4;stroke-dasharray:none;stroke-dashoffset:0;stroke-opacity:1;display:inline" id="path15045" sodipodi:cx="282.84067" sodipodi:cy="498.91376" sodipodi:rx="10.878488" sodipodi:ry="10.125361" d="M 293.71092,499.30779 A 10.878488,10.125361 0 1 1 293.71105,499.30459" sodipodi:start="0.038924886" sodipodi:end="6.3217938" sodipodi:open="true" transform="matrix(1.4764832,0,0,1.5465886,176.65303,-688.53207)"/>
    <path sodipodi:type="arc" style="opacity:1;fill:none;fill-opacity:1;stroke:#000000;stroke-width:1;stroke-linecap:square;stroke-linejoin:bevel;stroke-miterlimit:4;stroke-dasharray:none;stroke-dashoffset:0;stroke-opacity:1;display:inline" id="path15047" sodipodi:cx="282.84067" sodipodi:cy="498.91376" sodipodi:rx="10.878488" sodipodi:ry="10.125361" d="M 293.71092,499.30779 A 10.878488,10.125361 0 1 1 293.71105,499.30459" sodipodi:start="0.038924886" sodipodi:end="6.3217938" sodipodi:open="true" transform="matrix(1.4764832,0,0,1.5465886,224.53284,-651.33318)"/>
    <path sodipodi:type="arc" style="opacity:1;fill:none;fill-opacity:1;stroke:#000000;stroke-width:1;stroke-linecap:square;stroke-linejoin:bevel;stroke-miterlimit:4;stroke-dasharray:none;stroke-dashoffset:0;stroke-opacity:1;display:inline" id="path15049" sodipodi:cx="282.84067" sodipodi:cy="498.91376" sodipodi:rx="10.878488" sodipodi:ry="10.125361" d="M 293.71092,499.30779 A 10.878488,10.125361 0 1 1 293.71105,499.30459" sodipodi:start="0.038924886" sodipodi:end="6.3217938" sodipodi:open="true" transform="matrix(1.4764832,0,0,1.5465886,287.14493,-630.70804)"/>
    <path sodipodi:type="arc" style="opacity:1;fill:none;fill-opacity:1;stroke:#000000;stroke-width:1;stroke-linecap:square;stroke-linejoin:bevel;stroke-miterlimit:4;stroke-dasharray:none;stroke-dashoffset:0;stroke-opacity:1;display:inline" id="path15051" sodipodi:cx="282.84067" sodipodi:cy="498.91376" sodipodi:rx="10.878488" sodipodi:ry="10.125361" d="M 293.71092,499.30779 A 10.878488,10.125361 0 1 1 293.71105,499.30459" sodipodi:start="0.038924886" sodipodi:end="6.3217938" sodipodi:open="true" transform="matrix(1.4764832,0,0,1.5465886,215.32522,-433.2959)"/>
    <text xml:space="preserve" style="font-size:12.91574287px;font-style:normal;font-weight:normal;opacity:1;fill:#000000;fill-opacity:1;stroke:none;stroke-width:1px;stroke-linecap:butt;stroke-linejoin:miter;stroke-opacity:1;display:inline;font-family:Arial" x="28.696774" y="742.32562" id="text15115"><tspan sodipodi:role="line" id="tspan15117" x="28.696774" y="742.32562" style="font-size:16.66764832px">Antony Noghes</tspan></text>
    <text xml:space="preserve" style="font-size:22.91800308px;font-style:normal;font-weight:normal;opacity:1;fill:#000000;fill-opacity:1;stroke:none;stroke-width:1px;stroke-linecap:butt;stroke-linejoin:miter;stroke-opacity:1;display:inline;font-family:Arial" x="120.4763" y="321.53806" id="text2416"><tspan sodipodi:role="line" id="tspan2418" x="120.4763" y="321.53806">1</tspan></text>
    <text xml:space="preserve" style="font-size:22.91800308px;font-style:normal;font-weight:normal;opacity:1;fill:#000000;fill-opacity:1;stroke:none;stroke-width:1px;stroke-linecap:butt;stroke-linejoin:miter;stroke-opacity:1;display:inline;font-family:Arial" x="336.46344" y="321.08661" id="text2554"><tspan sodipodi:role="line" id="tspan2556" x="336.46344" y="321.08661">2</tspan></text>
    <text xml:space="preserve" style="font-size:22.91800308px;font-style:normal;font-weight:normal;opacity:1;fill:#000000;fill-opacity:1;stroke:none;stroke-width:1px;stroke-linecap:butt;stroke-linejoin:miter;stroke-opacity:1;display:inline;font-family:Arial" x="474.60632" y="296.76871" id="text2558"><tspan sodipodi:role="line" id="tspan2560" x="474.60632" y="296.76871">3</tspan></text>
    <text xml:space="preserve" style="font-size:22.91800308px;font-style:normal;font-weight:normal;opacity:1;fill:#000000;fill-opacity:1;stroke:none;stroke-width:1px;stroke-linecap:butt;stroke-linejoin:miter;stroke-opacity:1;display:inline;font-family:Arial" x="453.55801" y="205.42271" id="text2562"><tspan sodipodi:role="line" id="tspan2564" x="453.55801" y="205.42271">4</tspan></text>
    <text xml:space="preserve" style="font-size:22.91800308px;font-style:normal;font-weight:normal;opacity:1;fill:#000000;fill-opacity:1;stroke:none;stroke-width:1px;stroke-linecap:butt;stroke-linejoin:miter;stroke-opacity:1;display:inline;font-family:Arial" x="587.61432" y="90.780457" id="text2566"><tspan sodipodi:role="line" id="tspan2568" x="587.61432" y="90.780457">5</tspan></text>
    <text xml:space="preserve" style="font-size:22.91800308px;font-style:normal;font-weight:normal;opacity:1;fill:#000000;fill-opacity:1;stroke:none;stroke-width:1px;stroke-linecap:butt;stroke-linejoin:miter;stroke-opacity:1;display:inline;font-family:Arial" x="610.50195" y="233.82788" id="text2570"><tspan sodipodi:role="line" id="tspan2572" x="610.50195" y="233.82788">6</tspan></text>
    <text xml:space="preserve" style="font-size:22.91800308px;font-style:normal;font-weight:normal;opacity:1;fill:#000000;fill-opacity:1;stroke:none;stroke-width:1px;stroke-linecap:butt;stroke-linejoin:miter;stroke-opacity:1;display:inline;font-family:Arial" x="636.0459" y="128.17712" id="text2574"><tspan sodipodi:role="line" id="tspan2576" x="636.0459" y="128.17712">7</tspan></text>
    <text xml:space="preserve" style="font-size:22.91800308px;font-style:normal;font-weight:normal;opacity:1;fill:#000000;fill-opacity:1;stroke:none;stroke-width:1px;stroke-linecap:butt;stroke-linejoin:miter;stroke-opacity:1;display:inline;font-family:Arial" x="698.16907" y="148.40819" id="text2578"><tspan sodipodi:role="line" id="tspan2580" x="698.16907" y="148.40819">8</tspan></text>
    <text xml:space="preserve" style="font-size:22.91800308px;font-style:normal;font-weight:normal;opacity:1;fill:#000000;fill-opacity:1;stroke:none;stroke-width:1px;stroke-linecap:butt;stroke-linejoin:miter;stroke-opacity:1;display:inline;font-family:Arial" x="625.82806" y="345.81348" id="text2582"><tspan sodipodi:role="line" id="tspan2584" x="625.82806" y="345.81348">9</tspan></text>
    <text xml:space="preserve" style="font-size:22.91800308px;font-style:normal;font-weight:normal;opacity:1;fill:#000000;fill-opacity:1;stroke:none;stroke-width:1px;stroke-linecap:butt;stroke-linejoin:miter;stroke-opacity:1;display:inline;font-family:Arial" x="361.59891" y="411.20648" id="text2586"><tspan sodipodi:role="line" id="tspan2588" x="361.59891" y="411.20648">10</tspan></text>
    <text xml:space="preserve" style="font-size:22.91800308px;font-style:normal;font-weight:normal;opacity:1;fill:#000000;fill-opacity:1;stroke:none;stroke-width:1px;stroke-linecap:butt;stroke-linejoin:miter;stroke-opacity:1;display:inline;font-family:Arial" x="290.48401" y="428.37244" id="text2590"><tspan sodipodi:role="line" id="tspan2592" x="290.48401" y="428.37244">11</tspan></text>
    <text xml:space="preserve" style="font-size:22.91800308px;font-style:normal;font-weight:normal;opacity:1;fill:#000000;fill-opacity:1;stroke:none;stroke-width:1px;stroke-linecap:butt;stroke-linejoin:miter;stroke-opacity:1;display:inline;font-family:Arial" x="170.5284" y="423.46793" id="text2594"><tspan sodipodi:role="line" id="tspan2596" x="170.5284" y="423.46793">12</tspan></text>
    <text xml:space="preserve" style="font-size:22.91800308px;font-style:normal;font-weight:normal;opacity:1;fill:#000000;fill-opacity:1;stroke:none;stroke-width:1px;stroke-linecap:butt;stroke-linejoin:miter;stroke-opacity:1;display:inline;font-family:Arial" x="158.2672" y="483.34326" id="text2598"><tspan sodipodi:role="line" id="tspan2600" x="158.2672" y="483.34326">13</tspan></text>
    <text xml:space="preserve" style="font-size:22.91800308px;font-style:normal;font-weight:normal;opacity:1;fill:#000000;fill-opacity:1;stroke:none;stroke-width:1px;stroke-linecap:butt;stroke-linejoin:miter;stroke-opacity:1;display:inline;font-family:Arial" x="159.69771" y="567.33282" id="text2602"><tspan sodipodi:role="line" id="tspan2604" x="159.69771" y="567.33282">14</tspan></text>
    <text xml:space="preserve" style="font-size:22.91800308px;font-style:normal;font-weight:normal;opacity:1;fill:#000000;fill-opacity:1;stroke:none;stroke-width:1px;stroke-linecap:butt;stroke-linejoin:miter;stroke-opacity:1;display:inline;font-family:Arial" x="151.52361" y="624.55151" id="text2606"><tspan sodipodi:role="line" id="tspan2608" x="151.52361" y="624.55151">15</tspan></text>
    <text xml:space="preserve" style="font-size:22.91800308px;font-style:normal;font-weight:normal;opacity:1;fill:#000000;fill-opacity:1;stroke:none;stroke-width:1px;stroke-linecap:butt;stroke-linejoin:miter;stroke-opacity:1;display:inline;font-family:Arial" x="218.9603" y="705.88434" id="text2610"><tspan sodipodi:role="line" id="tspan2612" x="218.9603" y="705.88434">16</tspan></text>
    <text xml:space="preserve" style="font-size:22.91800308px;font-style:normal;font-weight:normal;opacity:1;fill:#000000;fill-opacity:1;stroke:none;stroke-width:1px;stroke-linecap:butt;stroke-linejoin:miter;stroke-opacity:1;display:inline;font-family:Arial" x="69.98658" y="712.21924" id="text2614"><tspan sodipodi:role="line" id="tspan2616" x="69.98658" y="712.21924">17</tspan></text>
    <text xml:space="preserve" style="font-size:22.91800308px;font-style:normal;font-weight:normal;opacity:1;fill:#000000;fill-opacity:1;stroke:none;stroke-width:1px;stroke-linecap:butt;stroke-linejoin:miter;stroke-opacity:1;display:inline;font-family:Arial" x="65.899498" y="672.37012" id="text2618"><tspan sodipodi:role="line" id="tspan2620" x="65.899498" y="672.37012">18</tspan></text>
    <text xml:space="preserve" style="font-size:16.99728775px;font-style:normal;font-weight:normal;fill:#000000;fill-opacity:1;stroke:none;stroke-width:1px;stroke-linecap:butt;stroke-linejoin:miter;stroke-opacity:1;display:inline;font-family:Arial" x="198.79517" y="483.23138" id="text2611"><tspan sodipodi:role="line" id="tspan2613" x="198.79517" y="483.23138">Louis Chiron</tspan></text>
    <text xml:space="preserve" style="font-size:16.99728775px;font-style:normal;font-weight:normal;fill:#000000;fill-opacity:1;stroke:none;stroke-width:1px;stroke-linecap:butt;stroke-linejoin:miter;stroke-opacity:1;display:inline;font-family:Arial" x="401.5491" y="411.70679" id="text2615"><tspan sodipodi:role="line" id="tspan2617" x="401.5491" y="411.70679">Nouvelle Chicane</tspan></text>
    <text xml:space="preserve" style="font-size:16.99728775px;font-style:normal;font-weight:normal;fill:#000000;fill-opacity:1;stroke:none;stroke-width:1px;stroke-linecap:butt;stroke-linejoin:miter;stroke-opacity:1;display:inline;font-family:Arial" x="203.25407" y="563.58405" id="text2619"><tspan sodipodi:role="line" id="tspan2621" x="203.25407" y="563.58405">Piscine (Swimming Pool)</tspan></text>
    <text xml:space="preserve" style="font-size:16.99728775px;font-style:normal;font-weight:normal;fill:#000000;fill-opacity:1;stroke:none;stroke-width:1px;stroke-linecap:butt;stroke-linejoin:miter;stroke-opacity:1;display:inline;font-family:Arial" x="218.71844" y="315.8443" id="text2623"><tspan sodipodi:role="line" id="tspan2625" x="218.71844" y="315.8443">Beau Rivage</tspan></text>
    <text xml:space="preserve" style="font-size:16.99728775px;font-style:normal;font-weight:normal;fill:#000000;fill-opacity:1;stroke:none;stroke-width:1px;stroke-linecap:butt;stroke-linejoin:miter;stroke-opacity:1;display:inline;font-family:Arial" x="656.77228" y="344.6673" id="text2631"><tspan sodipodi:role="line" id="tspan2633" x="656.77228" y="344.6673">Tunel</tspan></text>
    <text xml:space="preserve" style="font-size:16.99728775px;font-style:normal;font-weight:normal;fill:#000000;fill-opacity:1;stroke:none;stroke-width:1px;stroke-linecap:butt;stroke-linejoin:miter;stroke-opacity:1;display:inline;font-family:Arial" x="56.900894" y="286.03265" id="text2635"><tspan sodipodi:role="line" id="tspan2637" x="56.900894" y="286.03265">Sainte Devote</tspan></text>
    <text xml:space="preserve" style="font-size:16.99728775px;font-style:normal;font-weight:normal;fill:#000000;fill-opacity:1;stroke:none;stroke-width:1px;stroke-linecap:butt;stroke-linejoin:miter;stroke-opacity:1;display:inline;font-family:Arial" x="258.02472" y="702.22388" id="text2639"><tspan sodipodi:role="line" id="tspan2641" x="258.02472" y="702.22388">Rascasse</tspan></text>
    <text xml:space="preserve" style="font-size:16.99728775px;font-style:normal;font-weight:normal;fill:#000000;fill-opacity:1;stroke:none;stroke-width:1px;stroke-linecap:butt;stroke-linejoin:miter;stroke-opacity:1;display:inline;font-family:Arial" x="207.92088" y="424.0563" id="text2643"><tspan sodipodi:role="line" id="tspan2645" x="207.92088" y="424.0563">Tabac</tspan></text>
    <text xml:space="preserve" style="font-size:16.99728775px;font-style:normal;font-weight:normal;fill:#000000;fill-opacity:1;stroke:none;stroke-width:1px;stroke-linecap:butt;stroke-linejoin:miter;stroke-opacity:1;display:inline;font-family:Arial" x="392.91467" y="179.1087" id="text2647"><tspan sodipodi:role="line" id="tspan2649" x="392.91467" y="179.1087">Casino</tspan></text>
    <text xml:space="preserve" style="font-size:16.99728775px;font-style:normal;font-weight:normal;fill:#000000;fill-opacity:1;stroke:none;stroke-width:1px;stroke-linecap:butt;stroke-linejoin:miter;stroke-opacity:1;display:inline;font-family:Arial" x="383.61212" y="283.29526" id="text2651"><tspan sodipodi:role="line" id="tspan2653" x="383.61212" y="283.29526">Massenet</tspan></text>
    <text xml:space="preserve" style="font-size:16.99728775px;font-style:normal;font-weight:normal;fill:#000000;fill-opacity:1;stroke:none;stroke-width:1px;stroke-linecap:butt;stroke-linejoin:miter;stroke-opacity:1;display:inline;font-family:Arial" x="640.89917" y="91.315323" id="text2655"><tspan sodipodi:role="line" id="tspan2657" x="640.89917" y="91.315323">Mirabeau </tspan><tspan sodipodi:role="line" x="640.89917" y="112.56193" id="tspan2677">     Bas</tspan></text>
    <text xml:space="preserve" style="font-size:16.99728775px;font-style:normal;font-weight:normal;fill:#000000;fill-opacity:1;stroke:none;stroke-width:1px;stroke-linecap:butt;stroke-linejoin:miter;stroke-opacity:1;display:inline;font-family:Arial" x="699.81433" y="176.89731" id="text2659"><tspan sodipodi:role="line" id="tspan2661" x="699.81433" y="176.89731">Portier</tspan></text>
    <text xml:space="preserve" style="font-size:16.99728775px;font-style:normal;font-weight:normal;fill:#000000;fill-opacity:1;stroke:none;stroke-width:1px;stroke-linecap:butt;stroke-linejoin:miter;stroke-opacity:1;display:inline;font-family:Arial" x="498.26291" y="71.470276" id="text2663"><tspan sodipodi:role="line" id="tspan2665" x="498.26291" y="71.470276">Mirabeau </tspan><tspan sodipodi:role="line" x="498.26291" y="92.716886" id="tspan2675">   Haute</tspan></text>
    <text xml:space="preserve" style="font-size:16.99728775px;font-style:normal;font-weight:normal;fill:#000000;fill-opacity:1;stroke:none;stroke-width:1px;stroke-linecap:butt;stroke-linejoin:miter;stroke-opacity:1;display:inline;font-family:Arial" x="538.57324" y="212.8665" id="text2667"><tspan sodipodi:role="line" id="tspan2669" x="538.57324" y="212.8665"> Grand</tspan><tspan sodipodi:role="line" x="538.57324" y="234.11311" id="tspan2671">  Hotel</tspan><tspan sodipodi:role="line" x="538.57324" y="255.35972" id="tspan2673">Hairpin</tspan></text>
  </g>
</svg>